<?xml version="1.0" encoding="UTF-8"?>
<svg id="_圖層_1" xmlns="http://www.w3.org/2000/svg" version="1.1" viewBox="0 0 581.6 581.6">
  <!-- Generator: Adobe Illustrator 30.0.0, SVG Export Plug-In . SVG Version: 2.1.1 Build 123)  -->
  <defs>
    <style>
      .st0 {
        fill: #22adb2;
      }
    </style>
  </defs>
  <g>
    <path class="st0" d="M241.4,130.8v137.4c1.2,4,2.5,7.9,4,11.7V124c-1.5,2.2-2.8,4.4-4,6.8Z"/>
    <path class="st0" d="M255.4,113v187.4c1.3,2.2,2.6,4.3,4,6.4V109.9c-1.4,1-2.7,2-4,3.1Z"/>
    <path class="st0" d="M269.3,104.3v215.8c1.3,1.5,2.6,3.1,4,4.6V102.8c-1.4.5-2.7,1-4,1.5Z"/>
    <path class="st0" d="M283.3,100.3v234.3c1.3,1.2,2.6,2.3,4,3.5V99.9c-1.3.1-2.7.2-4,.4Z"/>
    <path class="st0" d="M297.2,100v245.8c1.3.9,2.7,1.8,4,2.7V100.5c-1.3-.2-2.7-.4-4-.5Z"/>
    <path class="st0" d="M311.2,103.2v251.3c1.3.7,2.7,1.4,4,2.1V104.8c-1.3-.6-2.6-1.2-4-1.7v.1Z"/>
    <path class="st0" d="M325.2,110.7v250.5c1.3.5,2.7,1.1,4,1.6V113.9c-1.3-1.1-2.6-2.2-4-3.2Z"/>
    <path class="st0" d="M339.1,125.6v240.6c1.3.4,2.7.8,4,1.1v-234.3c-1.1-2.6-2.5-5.1-4-7.4h0Z"/>
    <path class="st0" d="M353.1,245.9v123.7c1.3.3,2.7.5,4,.7v-119.4c-1.5-1.6-2.8-3.2-4-5.1v.1Z"/>
    <path class="st0" d="M367.1,258.1v113.5c1.3.1,2.7.2,4,.3v-112.3c-1.4-.4-2.7-1-4-1.6v.1Z"/>
    <path class="st0" d="M381.5,261.3h-.4v111h4v-111.2c-1.2.1-2.4.2-3.6.2Z"/>
    <path class="st0" d="M395,258.5v113.2c1.3-.1,2.7-.3,4-.4v-114.9c-1.3.8-2.6,1.5-4,2.1h0Z"/>
    <path class="st0" d="M409,247.2v122.6c1.3-.3,2.7-.5,4-.8v-129.2c-1,2.7-2.4,5.2-4,7.5v-.1Z"/>
    <path class="st0" d="M422.9,127v239.4c1.3-.4,2.7-.8,4-1.2V121.2c-1.5,1.8-2.8,3.8-4,5.8Z"/>
    <path class="st0" d="M436.9,111.3v250.2c1.3-.5,2.7-1.1,4-1.7V108.5c-1.4.9-2.7,1.8-4,2.8Z"/>
    <path class="st0" d="M450.9,103.5v251.5c1.3-.7,2.7-1.5,4-2.2V102.1c-1.4.4-2.7.9-4,1.4Z"/>
    <path class="st0" d="M464.8,100.1v246.3c1.3-.9,2.7-1.9,4-2.9V99.8c-1.3,0-2.7.2-4,.3Z"/>
    <path class="st0" d="M478.8,100.2v235.2c1.4-1.2,2.7-2.4,4-3.7V100.9c-1.3-.3-2.7-.5-4-.7Z"/>
    <path class="st0" d="M492.8,104v217.3c1.4-1.6,2.7-3.2,4-4.9V105.8c-1.3-.7-2.6-1.3-4-1.8Z"/>
    <path class="st0" d="M506.7,112.3v189.6c1.4-2.3,2.7-4.7,4-7.1V115.8c-1.3-1.3-2.6-2.4-4-3.6v.1Z"/>
    <path class="st0" d="M520.7,129.1v142.1c1.6-5.1,3-10.4,4-15.8v-116.9c-1-3.3-2.4-6.4-4-9.4Z"/>
  </g>
  <path class="st0" d="M322,530.8c-150,0-269.8-118.5-269.8-264.2V100.7c0-30.7,25.1-55.5,56.1-55.5s56.1,24.9,56.1,55.5v165.9c0,84.4,69.76,145.27,154.8,153.1,39.96,3.68,57.5,24.9,57.5,55.5s-23.7,55.5-54.7,55.5h0v.1Z"/>
  <ellipse class="st0" cx="471.2" cy="478.8" rx="58.2" ry="57.6"/>
</svg>