<?xml version="1.0" encoding="UTF-8"?>
<svg id="_圖層_1" data-name="圖層 1" xmlns="http://www.w3.org/2000/svg" xmlns:xlink="http://www.w3.org/1999/xlink" viewBox="0 0 581.59 581.59">
  <defs>
    <style>
      .cls-1, .cls-2 {
        fill: none;
      }

      .cls-2 {
        stroke: #fff;
        stroke-miterlimit: 10;
        stroke-width: 4px;
      }

      .cls-3 {
        fill: #fff;
      }

      .cls-4 {
        fill: #37aef7;
      }

      .cls-5 {
        clip-path: url(#clippath);
      }
    </style>
    <clipPath id="clippath">
      <path class="cls-1" d="M381.47,372.37c-80.42,0-145.84-64.74-145.84-144.33v-72.8c0-30.65,25.13-55.52,56.1-55.52s56.1,24.87,56.1,55.52v72.8c0,18.36,15.08,33.29,33.64,33.29s33.64-14.93,33.64-33.29v-72.8c0-30.65,25.13-55.52,56.1-55.52s56.1,24.87,56.1,55.52v72.8c0,79.59-65.41,144.33-145.84,144.33Z"/>
    </clipPath>
  </defs>
  <path class="cls-3" d="M321.98,530.76c-150.04,0-269.79-118.52-269.79-264.19V100.66c0-30.65,25.13-55.52,56.1-55.52s56.1,24.87,56.1,55.52v165.91c0,84.44,69.43,153.15,154.75,153.15,30.97,0,57.52,24.87,57.52,55.52s-23.7,55.52-54.67,55.52Z"/>
  <g class="cls-5">
    <g>
      <line class="cls-2" x1="187.52" y1="9.68" x2="187.52" y2="478.22"/>
      <line class="cls-2" x1="201.49" y1="9.68" x2="201.49" y2="478.22"/>
      <line class="cls-2" x1="215.45" y1="9.68" x2="215.45" y2="478.22"/>
      <line class="cls-2" x1="229.42" y1="9.68" x2="229.42" y2="478.22"/>
      <line class="cls-2" x1="243.38" y1="9.68" x2="243.38" y2="478.22"/>
      <line class="cls-2" x1="257.35" y1="9.68" x2="257.35" y2="478.22"/>
      <line class="cls-2" x1="271.31" y1="9.68" x2="271.31" y2="478.22"/>
      <line class="cls-2" x1="285.28" y1="9.68" x2="285.28" y2="478.22"/>
      <line class="cls-2" x1="299.24" y1="9.68" x2="299.24" y2="478.22"/>
      <line class="cls-2" x1="313.21" y1="9.68" x2="313.21" y2="478.22"/>
      <line class="cls-2" x1="327.17" y1="9.68" x2="327.17" y2="478.22"/>
      <line class="cls-2" x1="341.14" y1="9.68" x2="341.14" y2="478.22"/>
      <line class="cls-2" x1="355.1" y1="9.68" x2="355.1" y2="478.22"/>
      <line class="cls-2" x1="369.07" y1="9.68" x2="369.07" y2="478.22"/>
      <line class="cls-2" x1="383.03" y1="9.68" x2="383.03" y2="478.22"/>
      <line class="cls-2" x1="397" y1="9.68" x2="397" y2="478.22"/>
      <line class="cls-2" x1="410.96" y1="9.68" x2="410.96" y2="478.22"/>
      <line class="cls-2" x1="424.93" y1="9.68" x2="424.93" y2="478.22"/>
      <line class="cls-2" x1="438.89" y1="9.68" x2="438.89" y2="478.22"/>
      <line class="cls-2" x1="452.86" y1="9.68" x2="452.86" y2="478.22"/>
      <line class="cls-2" x1="466.82" y1="9.68" x2="466.82" y2="478.22"/>
      <line class="cls-2" x1="480.79" y1="9.68" x2="480.79" y2="478.22"/>
      <line class="cls-2" x1="494.75" y1="9.68" x2="494.75" y2="478.22"/>
      <line class="cls-2" x1="508.72" y1="9.68" x2="508.72" y2="478.22"/>
      <line class="cls-2" x1="522.68" y1="9.68" x2="522.68" y2="478.22"/>
      <line class="cls-2" x1="536.65" y1="9.68" x2="536.65" y2="478.22"/>
    </g>
  </g>
  <ellipse class="cls-4" cx="471.2" cy="478.84" rx="58.21" ry="57.61"/>
</svg>